<svg width="411" height="79" viewBox="0 0 411 79" fill="none" xmlns="http://www.w3.org/2000/svg">
<path d="M104.954 72.7372H134.325C148.803 72.7372 157.113 65.0028 157.113 54.424C157.113 44.9638 150.241 39.0192 142.315 38.6676V38.0284C149.506 36.5263 154.556 31.3168 154.556 23.8381C154.556 13.9624 146.95 7.28267 132.248 7.28267H104.954V72.7372ZM120.774 59.9851V44.3885H130.842C136.882 44.3885 140.59 47.5845 140.59 52.6023C140.59 57.2365 137.393 59.9851 130.554 59.9851H120.774ZM120.774 34.1932V19.843H129.787C135.06 19.843 138.416 22.5597 138.416 26.9062C138.416 31.5085 134.709 34.1932 129.531 34.1932H120.774Z" fill="black"/>
<path d="M192.792 51.5476C192.792 57.2685 189.149 60.4645 184.514 60.4645C179.72 60.4645 176.78 57.2045 176.748 51.8672V23.6463H161.119V54.9354C161.151 66.0256 167.895 73.3764 177.994 73.3764C185.345 73.3764 190.811 69.6051 192.984 63.5966H193.495V72.7372H208.389V23.6463H192.792V51.5476Z" fill="black"/>
<path d="M230.365 7.28267H214.736V72.7372H230.365V7.28267Z" fill="black"/>
<path d="M252.341 7.28267H236.712V72.7372H252.341V7.28267Z" fill="black"/>
<path d="M281.636 73.6641C294.516 73.6641 302.985 67.4318 304.775 57.7798L290.425 57.3643C289.211 60.6243 286.015 62.3821 281.924 62.3821C275.915 62.3821 272.208 58.3871 272.208 52.3786V51.9631H304.935V48.0639C304.935 31.892 295.091 23.0071 281.157 23.0071C266.327 23.0071 256.803 33.1705 256.803 48.3835C256.803 64.108 266.199 73.6641 281.636 73.6641ZM272.208 42.8864C272.432 37.9965 276.299 34.2891 281.476 34.2891C286.622 34.2891 290.329 37.8686 290.393 42.8864H272.208Z" fill="black"/>
<path d="M337.027 23.6463H328.174V11.8849H312.545V23.6463H306.057V35.152H312.545V59.0263C312.449 68.9659 318.905 73.9517 329.931 73.4403C333.703 73.2486 336.419 72.4815 337.922 72.0341L335.556 60.7521C334.885 60.9119 333.319 61.2315 332.137 61.2315C329.612 61.2315 328.174 60.2088 328.174 57.3004V35.152H337.027V23.6463Z" fill="black"/>
<path d="M341.401 72.7372H357.029V23.6463H341.401V72.7372ZM349.231 17.9254C353.673 17.9254 357.253 14.5696 357.253 10.4467C357.253 6.32386 353.673 3 349.231 3C344.82 3 341.209 6.32386 341.209 10.4467C341.209 14.5696 344.82 17.9254 349.231 17.9254Z" fill="black"/>
<path d="M379.005 44.7401C379.037 39.147 382.297 35.8232 387.251 35.8232C392.205 35.8232 395.145 39.0831 395.113 44.5163V72.7372H410.742V41.4482C410.774 30.3899 404.03 23.0071 393.707 23.0071C386.452 23.0071 380.955 26.6825 378.782 32.6591H378.238V23.6463H363.377V72.7372H379.005V44.7401Z" fill="black"/>
<path d="M1.6189 32.1411L16.6593 40.8366L23.8737 47.962L32.311 73.4446C32.4987 73.9614 32.8067 74.4275 33.2103 74.8051C33.6138 75.1827 34.1017 75.4613 34.6343 75.6184H35.4903C36.3636 75.6126 37.199 75.2651 37.8136 74.6523L54.199 58.5898L74.1306 78.2754C74.516 78.5609 74.9545 78.7686 75.4212 78.8867C75.8879 79.0047 76.3735 79.0309 76.8504 78.9636C77.3273 78.8963 77.7861 78.7369 78.2006 78.4945C78.6152 78.2521 78.9773 77.9314 79.2663 77.5508C79.7426 76.9236 80 76.1608 80 75.3769C80 74.593 79.7426 73.8302 79.2663 73.203L59.3348 53.5175L75.7202 37.3342C76.0928 36.9081 76.3632 36.4044 76.5114 35.8608C76.6596 35.3171 76.6817 34.7475 76.5762 34.1942C76.4364 33.6588 76.161 33.1673 75.776 32.7659C75.391 32.3645 74.9089 32.0663 74.3751 31.8995L48.5742 23.5664L41.3597 16.4409L32.5556 1.58618C32.3127 1.14396 31.9617 0.768706 31.5346 0.494516C31.1075 0.220327 30.6178 0.055895 30.11 0.0161643C29.6169 -0.0325056 29.1191 0.0290688 28.6534 0.196322C28.1877 0.363575 27.7661 0.632218 27.4199 0.982329L1.0075 27.0687C0.637281 27.3991 0.354568 27.814 0.18405 28.2771C0.0135326 28.7403 -0.0396096 29.2376 0.0292605 29.7257C0.0977999 30.2191 0.275836 30.6914 0.550631 31.1089C0.825426 31.5265 1.1902 31.8789 1.6189 32.1411V32.1411Z" fill="#7C4EE4"/>
</svg>
